<?xml version="1.0" encoding="utf-8"?>
<!-- Generator: Adobe Illustrator 24.0.0, SVG Export Plug-In . SVG Version: 6.00 Build 0)  -->
<svg version="1.1" id="Layer_1" xmlns="http://www.w3.org/2000/svg" xmlns:xlink="http://www.w3.org/1999/xlink" x="0px" y="0px"
	 viewBox="0 0 864 864" style="enable-background:new 0 0 864 864;" xml:space="preserve">
<style type="text/css">
	.st0{fill:#010101;}
	.st1{fill:#F491B1;}
	.st2{fill:#FFE1B9;}
	.st3{fill:#FAFDFD;}
</style>
<g>
	<path class="st0" d="M530,219.3c13.7-1.3,2.4,13.1,2.6,15.7c0.1,1.2,3.8,2,3,6.4c-0.4,2-3.1,3.6-3.6,5.2c-0.3,1.1,0.5,2.4,0.4,3.6
		c-0.4,4.9-5.7,7-8.1,10.9c9.3,2.2,18.5,5.7,26.5,10.9c5.9,3.9,11.5,6.5,6.5,14c13.8,7.8,27.8,21.5,36,35.1c3,5,8.3,11.7,1.8,15.9
		c4.2,3.2,16.7,16.4,15.1,21.5c-0.6,2-4.3,2.4-3.9,4.1c0.2,1.1,9.1,8.5,10.1,11.7c1.4,4.4-1.2,6.1-1.1,7.5c0.1,1,3.5,7.3,4.3,9.4
		c11.6,34.1,10.2,77-14.9,104.9c-3.1,3.5-5.6,4.3-8.2,8.7c-4,6.9-4.4,23.7-14.7,12.6c-10.7,9.2-22.3,17.9-35.8,22.5
		c-0.7,0.9,16,11,17.7,14c2.3,4.1-1.4,6.9-0.8,7.7c3.8,2,14.3,6.7,13.7,11.6c-0.2,1.3-1.6,3-1.5,3.3c0.1,0.7,7.5,5.9,9.2,9.2
		c2.7,5.2,1.4,17.7,2,18.5c0.2,0.2,2.9,0.4,4.4,1.7c4.1,3.6,1.6,12.4-3.6,13.7c-0.8,1.1,4.7,5.7,5.8,7.4c4,6.2,1.6,10.4-5.8,10.2
		c0,5.9,0.5,12.9-7.5,11.1c-2.2-0.5-3.7-3.1-6.2-3c-0.4,4.5-2.8,10.2-8,6.8c-4.1-2.7-6.4-15.9-11-20.4c-2-1.9-5.9-2.8-8-4.9
		c-1.6,2.2,1.7,1.2,2.1,3.6c1,7-4.6,6.2-9.7,6c2.2,8.9,4,18.1,4,27.3c9.1-0.5,6.2,7.6,3.9,13.1c-1.3,3-5.7,8.5-6.2,9.9
		c-0.6,2,0.1,4.7-0.3,7c-1.2,8.3-3.2,16.9-8.7,23.4c-0.1,0.4,5.6,0.6,3.7,6.9c-1.5,4.8-12.8,9.7-13.7,12c-0.4,0.9,0.7,3.1,0.2,5.1
		c-0.8,3.1-6,8.2-7.5,13.5s-0.5,23.1-5.2,25.3c-8,3.9-13.1-16.2-19.3-9.7c-2.6,2.7-2.3,8.2-7.6,11.7c-10.6,7-12.5-12.2-15.4-12.8
		c-6.9,1.7-10.7,9.9-18.6,6.6c-6-2.5-3.6-9.1-3.4-13.5c0.2-5.6-2.9-16.9-5.3-22.1c-0.4-1,0.1-2-1.6-1.6l-6.7,19.9
		c-0.3,6.3,3.8,16.6-5.5,17.9c-6.7,0.9-10.6-5.8-16.8-7.2c-3.7,6.3-6.1,19.3-16.2,12.1c-4.4-3.2-5.1-12.9-10.4-12.1
		c-3.8,0.6-7.6,13.4-15.2,11.1c-5-1.5-4.1-20.6-5.6-25.7c-1.4-5-7-10.8-7.7-13.3c-0.6-2.1,1-4.1,0.6-5.3
		c-0.5-1.6-12.1-7.6-13.5-12.4c-1.4-5,3.6-5.1,3-7.7c-0.2-1-2-2.6-2.6-3.9c-2.9-5.8-4.3-11.7-5.2-18.1c-0.3-2.3,0.3-4.9-0.3-7
		c-0.3-1.1-3.1-3.9-4-5.7c-2.9-5.5-9-18,1.7-17.4c0.1-9.3,2-18.3,4-27.3c-7.2,1-12.8-1.2-8-8.8c-0.4,0-0.8-0.1-1.2,0
		c-1.1,0.4-6.7,4.2-7.6,5.2c-1.8,2-3.5,5.6-4.7,8.2c-1.8,3.7-3.3,12.7-8.4,12.2c-4.5-0.4-4.4-7.6-5.8-7.9c-2.2,0.5-3.4,2.8-5.7,3.2
		c-10.5,1.8-5.1-9.5-7.7-11.1c-1.1-0.7-4.6,0.4-6.4-2.1c-3.5-5,3.4-11.7,7.3-14.5c-3.5-3.7-8.3-6.4-5.8-12.3
		c1.7-3.9,6.1-3.8,6.5-4.3c0.8-0.8-1.5-14,3.7-20.8c1.3-1.7,7.5-6.3,7.6-6.8c0-0.4-1.6-2-1.5-4c0.2-4.2,10.1-9.1,13.7-10.9
		c-4.4-7,1.4-10,6.5-14c1.1-0.8,5-2.3,4-3.7c-0.4-0.5-9.9-4.4-11.8-5.5c-5.8-3.3-11.6-7.1-16.7-11.4c-3.3,6.3-7.5,4.2-12.4,1.1
		c-13.2-8.2-24.7-28.6-30.4-42.7c-0.9-2.1-3.8-12.5-4.3-13c-0.8-0.6-4.1,0.9-5.9-2.6c-1.6-3.1-4.1-15.1-4.5-18.9
		c-0.9-10,1.2-19.7,3.2-29.3c-1.9,0.3-4.4-0.6-5.2-2.4c-1.6-3.7,2.6-21.8,4-26.5c1.2-4.2,6.3-13.4,6.7-15.9c0.3-2-1.3-3-1.4-4.6
		c-0.1-1.5,2.1-8.1,2.8-10.1c3-8.6,8.2-16.8,14-23.8c-10-2.6-4.9-8.8-0.4-14.1c4.8-5.6,11.7-10.9,18-14.6c-0.2-3.5-2.7-3.4-0.6-7.4
		c1.4-2.7,8.7-11.1,11.1-13.8c4.6-5.1,9.8-9.6,15.3-13.7c0.6-2.3-13.7-8.1-11.3-14.5c1.7-4.6,7.1-2.7,10.9-2c1.7-1.7-0.9-1.7-2-2.8
		c-2.7-2.5-10.1-9.4-10.9-12.5c-0.8-3.3,1.7-5.6,4.9-5.7c1.3,0,4.1,2,3.6-0.4c-0.4-2.1-5.3-8.3-6.6-11.1c-3.5-7.6-7.6-19.5,5.8-14.2
		c-1.1-12.3,0.1-25.8,1.7-38.1c3.1-23.4,12.3-60.4,27.2-78.9c7.8-9.7,13.5-11.2,23.7-3.6c15.1,11.3,33,39.2,38.4,57.3
		c0.7,2.2,2.7,9.8,2.8,11.6c0.1,2.1-2.2,3.1-2.1,4.5c0.1,1.3,4.2,8.7,5.1,11c4.4,12.1,7.8,26.9,8.5,39.8c0.2,4.4-1,16.1,0.1,19.2
		c0.2,0.7,0.6,1,1.2,1.2l12.3,2.6c-0.8-2.7,0.4-5.9,0-8.4c-0.8-4.9-11.7-15.5,0-18.2c-2.5-8-2-14.9,8.1-10.4
		c-0.5-34.1,8.3-70.8,27.5-99.1c5.8-8.5,19.2-25.7,30.7-24.6c21.4,2,37.3,39.1,39.8,57.6c0.8,5.8,0,13.4,0.9,18.4
		c0.4,2.2,2.5,2.5,3,4.2c1.5,4.8,2.4,18.4,2.6,23.9C532.2,194.2,530.7,207,530,219.3L530,219.3z"/>
	<path class="st1" d="M539.6,621.7c7-1.7,9.3,2.2,15.3,3.7c-0.3-3.2-6.9-15-1.9-16c2.6-0.2,12.8,9.1,14,7.9
		c-5.9-16.9-0.7-31.3,13.3-11.3c0.2,0.1,1.2-1.8,1.2-2c0.5-3.3,0-8.5,0-12.1c0-1.4-3.4-6.3-4.5-7.6c-2.3-2.4-11.9-7.6-12.3-9.4
		c-0.2-0.8,0.9-2,1.5-2.3c1.1-0.5,4.6,0.1,3.6-1.2c-2.8-3.1-18.1-8.8-19.3-11.2c-1-1.9,0.2-3.1,2-3.7c2.6-0.9,4.1,0.3,6.5,0
		c-3.4-2.7-6.6-5.8-10.2-8.3c-1.6-1.1-9.3-6.2-10.5-6.5c-2.2-0.4-5.6,1.4-8.2,0.7c0.2,1.5,2.8,1.1,4,2c2.8,2.1,0.7,4.4-2.1,5
		c-6.3,1.4-15.1-0.4-21.1-2.2c1,2.1,8.6,4.1,5.4,7c-1.6,1.5-6.7,1.1-9,0.9c-4.5-0.4-14.3-4-17-3.9c-2.7,0.1-11.2,7.7-15.7,6.4
		c-0.3,2.1,0.2,1.2,1.1,1.7c3.2,1.4,6.7,2.9,9.3,5.1c1.5,1.3,3.6,2.8,1.2,4.4c-1.1,0.2-14.4-8.8-19.3-8.9c-7.5-0.2-19.3,4-27.4,4.8
		c-8.7,0.8-19.2,0.9-27.9,0c-5.2-0.6-14.2-3.4-18.6-3.2c-5,0.2-18.2,10.5-19.3,10.5c-0.7,0-1.4-1.6-1.1-2.7c0.6-2.3,10.7-8,13.5-8.6
		c0.2-0.3-0.4-1-0.8-1.2c-0.7-0.4-10.2-3.7-10.8-3.6c-1.7,0.1-4.3,2.4-6.4,3.3c-9.2,3.5-12.2,1.4-5.3-6.5c-11.1,0.9-21.5-3-31.7-6.4
		l-13.3,10.1c3.1-0.4,10.8-0.9,8.1,4.1l-18.5,10c-0.7,3,2.7,0.9,3.9,1.7c0.2,0.8,0.9,1.8,0.8,2.6c-0.3,1.9-11.4,8-13.7,11.2
		c-3.5,4.8-4,14.5-1.8,19.9c14.4-19.6,19.1-5.8,13.3,11.3c1.1,1.1,10.5-7.1,12.9-7.7c7.3-1.8-1.5,15.1-0.8,15.8
		c6.1-1.4,9.5-6.1,16.5-3.3c7.1,2.9-1.7,6.8-3.7,9.7c2.3-0.2,6.9-2.6,8.5,0c1.4,2.3-3.4,19.1-3.7,23.7c-0.2,3.3-0.2,8.1,0,11.3
		c0.2,2.3,4.2,12.5-0.3,11.6c-1.5-0.3-3.5-4.1-4.3-5.4c-1-1.5-1.3-1.7-1,0.2c0.9,5.4,6.7,9.4,7.7,12.5c1,3,0.1,7.4,0.5,10.8
		c0.6,5.8,2.8,11.7,6,16.5c1.6,2.4,10,10.6,10,11.7c0.1,5-8.4-1.5-10.5-0.8c2.8,2.3,5.5,4.8,8.6,6.7c1.8,1.1,10,4.5,10.4,4.9
		c0.9,1.3-0.4,2.8,0,4.1c0.1,0.4,3.3,6.9,3.6,7.2c2.2,1.9,1.5-4.3,1.7-5.2c1.8-10.8,9.2,4.9,11.2,7.2c6.1,7,6.2,0,9-4.7
		c1.6-2.6,4.2-7.2,7.9-5c2.6,1.6,1.8,15.7,3.6,15.7c2-0.7,3.8-2.9,5.2-4.4c2.2-2.6,7.2-11.7,10.1-11.6c3.2,0.1,4.1,6.7,5.3,9.1
		c0.4,0.9,3.2,6.5,4.3,4.5c2.1-3.7,2.5-10.8,4.4-14.9c1-2.2,3.6-4.2,4-6.4c0.5-2.7,0.3-20.2-1.2-21.4c-10.2-2.1-23.2-3.1-32.7-7.3
		c-2.1-0.9-5.5-2.5-2.5-4.6c15.6,4.9,31.7,9.2,48.2,8c11.9-0.8,23.3-6.9,34.5-10.5c0.6,0.6,1.4,1,1.2,2c-0.4,2.1-16,7.6-18.9,8.5
		c-8.2,2.5-16.7,4.5-25.4,4c-0.3,2.9,0.8,5.6,0.9,8.4c0.1,4.1-1.7,8.6-0.8,12.9c0.3,1.8,3.1,3.8,4.2,6.3c1.5,3.6,2.5,12.5,4.3,15
		c1.3,1.9,3.8-3.4,4-4c1.1-2.4,2.1-9.7,5.6-9.7c3,0,11.4,15.1,15.3,16.9c2.5-3.7,0-15.3,5-16.8c5.7-1.7,8.7,12.4,10.4,12.8
		c5.5,1.2,9.9-12.8,12.9-13.6c4.7-1.3,2.2,7.8,5.1,8.8c-0.1-2.5,3.1-5.4,3.6-7.2c0.4-1.3-0.9-2.8,0-4.1c0.3-0.5,8.4-3.8,10.4-5
		c1.4-0.9,7.3-4.9,7.8-5.9c0.2-0.4,0.2-1.4-0.4-1.2l-7.9,3.3c-3.3-3.6,4.2-7.8,6.7-10.9c4.1-5.1,7-12.1,8-18.6
		c0.4-2.9-0.2-9.6,0.4-11.6c0.6-2,3.2-3.5,4.4-5.3c1.6-2.5,2.4-5.5,4.1-7.9c-1.9-1.6-1.9,1.6-2.8,2.8c-1,1.2-2.1,2.3-3.3,3.2
		c-4.6-1-0.7-6.9-0.3-10.8c0.3-3.4,0.3-8.6,0-12.1c-0.3-4-4.7-22.2-3.7-23.7c1.2-1.8,6.5-0.4,8.5,0.1
		C539.2,628.7,530.8,623.8,539.6,621.7L539.6,621.7z M402.1,694.9c-0.8,4-16.8-1.9-17.5-9c-0.1-1.4-0.2-1.7,1-2.6
		c3,4.3,5.2,6.3,10.1,8.4C397.1,692.3,402.6,692.6,402.1,694.9z M402.6,610.1c-3.4-3-6.4-7.3-6-12.1h4c-5.1-6.7-0.1-7.7,6.4-7.2
		c0.8,2.5-3.8,2.9-4,3.2c-1.2,1.5,1.7,1.9,2.4,2.8c4.4,5.2,1.9,8.5-4,5.3c0.2,2.2,1.9,2.9,2.4,5.3
		C403.9,608.4,404.4,610.5,402.6,610.1L402.6,610.1z M419.8,657.1c-0.3,2.5-5.1,12.7-7.7,8.5c-1.9-3.2,2-12.9,2-16.9
		c-0.3-0.4-5.1,5.8-8.6,2.2c-0.7-0.8-2.1-5.4-1.7-6.5c0.4-1.2,2.5-1.8,3.1-1.3c0.2,0.2,0.6,4,0.8,4.8c3.5,0.6,5.4-5.8,9.1-3.3
		c3,2-0.2,9.8-0.2,12.9C416.8,657.7,420.2,654,419.8,657.1L419.8,657.1z M471.7,605.2c-2,2.1-4.3,7.1-6.8,8.5
		c-1.1,0.6-2.2,0-2.4-0.8c-0.2-0.8,7.8-13,8.6-13.2c4.4-1.1,4.1,8.2,6.7,9.6c4.3-18.6,12.6,11.4,7.6,13.7c-1.3,0.6-1.7-1.4-1.8-2.2
		c-0.6-3.8-0.7-7.7-1.8-11.5c-1.8,0.6-1.5,2.7-2.8,4.1C474,618.4,472.6,608.5,471.7,605.2L471.7,605.2z M488.4,685.4
		c-1,1.9-7.8,10.5-9.8,9.5c-0.5-0.2-1-1.3-1.6-1.7c3.1-1.1,10.7-14.7,11.7-14.9C492,677.6,489,684.3,488.4,685.4L488.4,685.4z
		 M532.4,681.2c-0.5,2.4-10.1-0.3-10.4-1.6c-0.2-0.9,0.6-1.6,1.3-1.9C525.2,677.1,532.9,678.8,532.4,681.2z M415.8,455.3
		c0.6-3.2,7.5-4.7,10.3-5c9.7-1.2,23.2,1.4,14.2,13.4c-5.4,7.1-10.3,8.4-18,3.6C418,464.6,414.7,460.8,415.8,455.3L415.8,455.3z
		 M421.6,224.9c-0.3-0.2-2.8-6.9-2.5-7.2c15.6,10.3,2.7-10.5,4-12.1c3,1.8,6.7,7.1,9.5,2.7c-2.1-25.7,2.9-53.6,12.6-77.4
		c5.6-13.7,20.2-40.2,33.9-46.5c13-6,26.6,13.9,31.8,23.5c5.1,9.4,8.2,20,9.5,30.7c0.4,3.4,0.5,20.2,1.8,21.1
		c0.6,0.4,2.1-0.3,2.2,0.6c2.2,22.1,2.8,44.7-0.9,66.6c0.1,1.1,1.5,3.1,2.7,2.8l4.5-3.5c0.4,4.3-7.7,10.9-8,13.8
		c-0.3,2.9,4.7,2.5,6.3,1.9c-0.6,2.3-5.1,3.6-5.5,5.3c-0.9,3.4,4.1,1.9,3.1,3.9c-0.2,0.4-3.3,4.1-3.7,4.4
		c-2.4,1.7-11.4-3.3-14.8-3.2c3.2-11.1,3.2-22.7,4-34.2c1.7-23.2,4.6-53.2,0.4-76c-3.3-17.9-19.5-40.5-37.4-22.1
		c-20.2,20.6-30.5,66-32.1,94.1c-0.3,5.9,0.4,11.9,0,17.7c-0.1,1.6-0.9,9.3-1.2,10c-0.6,1.1-3.1,2.7-4.4,2c-2-1-7.7-8.2-8.9-10.5
		c-1.1-2.1-2.2-7.2-3.4-8.3C424,223.9,421.9,225.1,421.6,224.9L421.6,224.9z M489.8,241c-7.6-2.5-15.6-1.7-23.3-0.8
		c0.6-7.6-0.8-16.3,0-23.7c0.6-6,4.4-15.2,8.4-19.7c5.5-6.1,12.6-5.1,14.7,3C492.8,212,489.3,228.4,489.8,241z M364.4,239.8
		c-0.2,3.1-2,5.9-0.8,9.2c-2.6,0.1-5.7,0.4-8.2,1c-3,0.7-9.4,3.5-11.6,3.7c-1,0.1-1.4-0.3-1.7-1.2c-0.8-2.7-1.6-10.4-1.8-13.5
		c-0.6-10.5-0.3-25.2,5-34.5c3.4-5.9,8.1-10.3,13.5-3.4C364.7,208.9,364.9,230.2,364.4,239.8L364.4,239.8z M305.3,235.3
		c-1.5-2.1-10.3-18.1-9.3-19.2c1.9,1.1,3.8,2.9,6.1,3.2c5.9,0.7,2.8-5,2.7-8.4c-1-31.8,5.7-69.9,19.8-98.4
		c2.9-5.8,10.8-21.5,18.3-21c5.6,0.4,19.6,16.9,23.3,21.8c10.4,13.6,18.4,29.3,22.2,46.1c0,0.9-4-0.5-3.1,3.9
		c12.4,22.7,15.9,48.1,15.1,73.8c-9-0.4-7.4,4-1.6,8l-12-4.1c-2.3-22-4-44.2-8.4-66c-2.5-12.7-7.6-36.7-17.9-44.8
		c-19.4-15.3-28.1,10-32.3,24.7c-4.1,14.5-6.8,32.1-7.5,47.2c-1,21,0.1,43.3,1.7,64.2l-10.9,5.9l-11.7-9c0.6-1.3,1.9,0.4,2,0.4
		c3,0,10.7,0.6,12.9,0c0.4-0.1,1.7-1.6,1.9-2.1c0.5-2.5-7.5-7-9.5-8.7c-3.1-2.8-5.8-6-8.8-8.9c-0.2-2.2,0.5-0.7,1.4-0.6
		c2.4,0.2,7.3,0.7,9.3,0.1C313.4,242,306.4,236.9,305.3,235.3L305.3,235.3z M613,388.4c-0.8-2-6.6-11.1-5-12.3l3.2-0.4
		c-2.7-5.1-16.3-15.9-17.3-20.4c-0.7-3.3,2.2-2.7,4.5-2.1c0.9,0.2,6.7,3.5,5.6,0.9c-3.6-3.6-7.2-9.1-10.8-12.5
		c-1.4-1.3-9.9-7.1-10.1-7.7c-1.3-5.7,6.7-2.8,9.7-2.7c0.3-0.3-3.2-6.3-3.7-7.2c-6.6-10.8-18.9-23.9-29.4-30.9
		c-3.2-2.1-13.8-6.8-15.3-8.9c-0.6-0.9-1.2-3.4-0.8-3.7c1.5-0.9,7.7-0.8,9.6,0c-6.4-5.7-15-10-23.1-12.6c-3.6-1.2-19.1-3.7-20.3-4.7
		c-3.3-2.8,3.1-5.2,5.6-4.4c0.2-0.2-0.4-1-0.8-1.2c-2.2-1.2-13.5-3.6-16.7-4.2c-7.5-1.4-15.1-1.7-22.7-3.1l-1.5-1.6
		c0.9-3.8,5.9-3.1,7.9-6c-4.9-0.1-10.7,0.5-15.4,1.8c-2.5,0.7-11.4,5.5-12.7,3.8c-0.5-3.1,1.6-5.6,3.2-8c-0.5-0.5-6.8,1.5-8,2
		c-8.5,3.4-8.6,10.4-17.3,1.2l-7.6-11.3c0,1.9-0.2,3.9,0.2,5.8c0.4,2.2,5.4,9.7,1,10c-0.7,0.1-9.4-4.9-11.8-5.7
		c-4.5-1.3-9-1.1-13.5-2.2c2.2,2.9,5.4,4.1,7.4,7.5c1,1.8,2.6,4.4-0.6,4.6c-2,0.2-11.1-5-14.1-6.1c-7.7-2.7-16-3.9-24.1-2l10.8,5.6
		c1.7,1.4,2.9,2.4,0.8,4.1c-1.5,1.2-5.6-0.8-8-0.9c-13.4-0.8-22.8,2.5-35,7.3c0.7,1.8,4.2,1.2,5.3,3.2c0.5,1,0.7,2.2-0.4,2.9
		c-1.2,0.7-11.4,1.6-14.5,2.4c-12.1,3.2-25.9,15.2-34.2,24.5c-2.9,3.2-5,7.2-8.4,10.1c-0.2,2.2,0.5,0.7,1.4,0.6
		c2.3-0.2,7.4-1.5,7.3,2c-0.1,2.7-10.7,7.7-13.4,9.6c-6.5,4.5-13,10.5-17.7,16.8l10.5-0.4c0.7,4.1-3.8,6-6,8.8
		c-7.1,8.8-13.2,19.5-15.7,30.6h4.8c0.9,1.3-5.8,10.7-6.8,12.9c-4.6,9.4-7.1,20.9-7.6,31.4l7.5-7.4c1.4-1.1,2.9-0.5,3,1.4
		c0.2,2.2-5.3,13.4-6.2,17.1c-2.4,9.3-3.2,19.1-1.7,28.6c0.2,1,2,10.8,3.1,9.3c-0.5-1.5,0.5-3.2,2-3c2.6,0.3,5.7,14.9,6.8,17.9
		c6.2,17.1,17,36.3,32.6,46.2c0.3-3.7-3.1-6.5-2-10.5c1.8-1.9,10.5,7.3,12.5,8.8c4.6,3.5,11.6,7.7,16.7,10.6
		c14.8,8.3,32.3,15.8,49.6,14.7c2.8,2,1.5,4.5,0,6.9c0.9,0.8,7.5-4.2,10-4c1.6,0.1,8.9,3.6,11.7,4.4c25.6,7.3,72.5,6.4,96.5-5.6
		c1.8-0.9,3.6-3.3,5.4-3.5c3.5-0.6,15.4,5.3,20.3,3.9l-6-5.6c-0.8-1.2-0.7-3.5,0.9-4c1.8-0.5,18.2,5.5,22,4.8
		c-0.8-2.5-8.6-2.8-5.7-6.1c1.9-2.1,6.5-0.8,9.3-1.2c17-2,32.8-12,45.8-22.5c4.5-3.6,6.3-8.8,11.3-0.8c0.8,0,2.8-7.9,3.5-9.4
		c0.9-2.1,4.5-9.5,5.7-11c0.6-0.8,2.6-0.4,4.2-1.6c5.6-4.5,15.2-24.2,17.6-31.4C624.7,441.5,621.4,408.9,613,388.4L613,388.4z
		 M585.5,444.9c-4.1,74-70.4,97.5-134,104.8c-59,6.7-154.5-13-172-79.5c-4.8-18.4-2.9-38.1,2.1-56.2c2.6-0.8,3.7,1.1,5.6,2.3
		c-0.6-3.5-4.9-19.9-2.3-21.6c1.9-1.3,5.4,1.4,4.8,4c0.2,0.2,1-0.4,1.2-0.8c0.9-1.9,1.8-7.3,2.8-10.1c0.8-2.2,4.5-11.8,5.6-12.9
		c1.5-1.4,2.9-0.8,3.9-1.4c0.6-0.4,6.8-9.7,8.3-11.4c11.7-13.4,37.1-30.5,55.2-31.7c6.6-0.4,13.3,1.6,19.6,3.1
		c-1.3-1.8-12.9-8.8-6-9.7c3.6-0.5,14,6.3,16.9,8.9c1,0.9,0.8,2.5,2,2.4c0.8-3.5-3.5-9.6-0.5-12.1c3.9-3.3,8.6,8.5,9.7,11.3
		c3.2-1.8,4.8-15.6,6.5-16.1c4.6-1.3,5.4,10.9,5.6,13.7c4.5-6.2,9.5-15.1,18.1-15.3l-2.4,10.5c5.8-5.1,22.1-10,29.2-7.9
		c6.7,2-5.1,7.1-3.4,8.7c2.7-1.5,5.6-2.4,8.6-3c5.7-1.1,15.8-2.1,21.5-1.8c2.2,0.1,10.3,0.5,8.1,4c-0.8,1.3-3.5,0.8-3.7,2.4
		c15.2,1.7,29.4,8.4,40.9,18.2c2.5,2.2,6.1,5.3,7.3,8.3c1.4,0.2,0.7-2,2.1-2.4c2.8-0.8,6.8,5.6,8.2,7.7c4.8,7.3,8.3,15.7,9.8,24.4
		c1.7-0.4,2.7-5.9,3.3-6.3c3.7-2.5,4.5,4.4,4.7,6.7c0.4,4.9-0.5,9.7-1.3,14.5C584.9,408.9,586.3,430.4,585.5,444.9L585.5,444.9z"/>
	<path class="st2" d="M516.3,739.5c-2.1,5.7-6.5,10.7-7.7,16.8c-0.7,3.8-0.1,7.2-0.4,10.9c-0.1,1.4-1,8.5-2,8.4
		c-4.7-5.1-12.1-17.6-19.7-9.3c-2.5,2.7-6.2,17.2-10.8,10c-3.3-5.2-2.4-14.2-11.8-11.6c-3.9,1.1-15.7,13.4-15.3,2.5
		c0.4-10.5,3-11.6,7.4-20c0.7-1.4,1.2-3,1.5-4.6c0.5-0.4,1.1-0.1,1.7,0.5c2.3,2.6,11.1,19.5,16.4,14c2.2-2.3,2.8-11.9,2.8-15.3
		c1.9-0.4,1.3,0.2,1.8,1c3.5,5.5,5.4,17.1,14.3,9.1c1.8-1.7,5.2-8.2,5.6-8.5c2.4-1.7,1,4.7,2.8,6.4
		C508.7,755.6,510.8,737.2,516.3,739.5L516.3,739.5z M422.4,751.8c-1.6-3-2.8-6.2-4.6-9.1c-2.4,0-18.9,35.2-20.5-0.8
		c-4.5,2.4-4.8,13.2-10.8,12.9c-5.1-0.2-8.5-7.9-11.3-11.3c-5.3,17.2-7.8,0.8-12.1-3.2c-0.8-0.8-3.1-1.2-3.6-0.8
		c-0.6,0.5,6.2,9.9,6.3,11.8c0.7,3.1,2.3,7.3,2.6,10.3c0.4,3.7,0,8.3,0,12.1c0,0.1,1,2.1,1.2,2c5.5-5.1,11.9-17.7,20.1-8.9
		c1.9,2,6.5,15.5,10.1,10.7c3.6-4.9,2.9-16.6,12.6-12.5c4.1,1.8,14.5,11.7,14.8,3c0.1-1.7-0.6-9.7-1-11.1
		C425.8,755.9,423.3,753.4,422.4,751.8L422.4,751.8z M306.9,618.9c-3.5-3.6,4.7-15.3,0-20.1c-5.3,2.8-6.9,9-11.3,12.8
		c-1.7,0.4-1.9-2.7-3.3-3.1c-2.1-0.6-4.8,1.4-4,4c1.6,5.1,10.4,5.6,14.1,8.5c1,0.8,6.4,7.5,6.5,8c0.1,1.2-1.8,1.1-3,0.6
		c-3.2-1.5-5.6-8.5-10.3-8c-0.8,0.1-10.6,9.8-9.2,11c7.1-0.9,8.6,5.4,8,11.3c1.1,1.2,7.3-7.4,11.6-2.4c1.4,1.6,1,4.7,2.8,5.6
		c0.6-2.7,1.7-5.4,2.9-7.9c1.3-2.7,6.1-9.6,6.5-11.2c0.5-2-0.1-4.2,0.2-6.2c0.5-2.9,2.3-5.5,2.3-8.5
		C320.4,612.7,311.4,623.6,306.9,618.9L306.9,618.9z M567.8,630.2c-0.9-0.9,4.7-8.4,5.7-9.2c4-3.3,15.6-3.3,14.1-11
		c-4.5-3-4-0.5-7.3,1.7c-3.9-4.2-5.9-10.1-11.3-12.8c-4.6,4.6,3.4,16,0.5,19.8c-4.1,5.2-14-5.9-14.5-5.3c0.4,3.9,2.4,7,3,11.1
		c0.2,1.2-0.7,2.5-0.4,3.6c0.3,1.4,2.9,3.7,3.7,5.1c2.4,4.1,5,9.2,5.8,13.9c2.9,0.4,0.8-3.3,2.8-5.6c3.6-4.2,7.9,1,11.6,2.4
		c-0.3-5.8,0.9-12.3,8-11.3c1.8-1.5-7.7-9.2-8.5-11.2C574.4,621.5,573.7,629.2,567.8,630.2L567.8,630.2z M505.1,250.6
		c0.4-5.5,1.8-11,2.4-16.5c1-9.1,1.1-18.2,1.6-27.3c1.2-21.1,6-67.1-8.1-83.6c-8.4-9.8-17.2-9-25.3,0.4
		c-14.1,16.3-23.6,46.9-26.8,68.1c-2.4,15.6-2.3,31.3-3.3,46.9c5.5-1.3,11.2-4.1,16.9-2.4v-19.7c0-2.6,2.7-11.1,3.9-13.8
		c3.7-8.5,12.8-19.4,22.3-11.5c3.4,2.9,4.9,9.7,5.3,14c1.1,14.1-0.7,29.1-2.4,43.1L505.1,250.6L505.1,250.6z M367.6,240.2
		c5.1-1.8,10-1.9,15.3-0.8c-1.8-20.5-3.7-41.1-7.5-61.3c-2.5-13.4-7.4-40.7-19.6-48c-10.2-6.1-16.1,3-19.7,11.4
		c-7.2,16.7-11,41.5-11.9,59.6c-1,20.7,0.1,42.5,1.6,63.1l5.6-0.8l-2.2-2.8c-0.4-2.9,7.5-3.8,9.1-6c0.6-1.1-2-15.9-2.1-18.9
		c-0.4-7.8,0.2-19.9,2.6-27.2c2.8-8.2,12.3-21.8,21.1-11.8c4.6,5.2,7.2,16,7.7,22.9C368.1,226.3,367.2,233.5,367.6,240.2
		L367.6,240.2z M579.3,418.8c6.4,25.8-1.6,59.2-17.6,80.2c-26.6,34.9-101.5,49.1-143.1,47.5c-49.4-1.8-118.7-22.1-135.1-74.8
		c-5.7-18.5-2.6-34.4-0.4-53.1c1.1-1.2,5.4,6,7.9,1.8c2.3-3.7-3.1-12.6-2.3-17.1c5.7,5.5,5.4-6.2,6.7-10.6c1.3-4.6,3.5-8.9,4.6-13.5
		c0.3-0.3,1.9,0.8,2.7,0.7c1.1-0.2,6.6-10.4,8.2-12.6c9.7-13.2,23.6-22.4,37.9-28.9c13.4-6.2,21.6-6.4,35.8-2.3
		c2.5,0.7,4.4,2.8,7.3,2.2c0.8-0.2,1.1-1.9,0.9-2.5c-0.4-1.6-2.6-2.5-2.4-3.9c2.4,0.3,7.4,7.7,8.8,7.8c4.2,0.3,2.9-8.4,2-11.1
		c3.1,1.4,3,11.6,6.8,10.4c1.8-0.6,7.3-10.9,6.9-13.6c1.3,0,1.5,2.7,1.6,3.6c0.2,2.6-0.8,5.7-0.4,7.7c0.6,3.3,3,1.1,4.4-0.4
		c3.9-4.4,6.5-11.2,11.7-14.9c0.8,2-2.4,10.6,0.1,11.3c3,0.9,2.8-1.7,4.7-3.3c6.4-5.2,14.7-6.7,22.5-8c1.1,2.4-7.6,8.9-3.1,10.4
		c2.8,0.9,6.2-2,9.1-2.7c2.4-0.7,11.4-2.8,13.3-2.8h13.3c-0.4,1.5-2.8,1.6-3.6,3.2c-1.9,3.7,8.1,3.1,9.6,3.3
		c16.7,2.9,31.1,10.1,42.3,22.8c1.2,1.3,7.9,12.1,9.6,9.2c0.5-0.8-1-3,1.6-2.4c1.4,4.5,4.5,8.5,6,12.9c0.9,2.5,3.1,14.7,3.7,15.2
		c3.1,2.1,5.1-2.7,7.1-3.9c0.5,3.8-2.6,13.5-2,16.2c0.8,3.5,4.3,1.5,6.5,3.1C575.2,407.3,578.6,416,579.3,418.8L579.3,418.8z
		 M449.6,389.4c-0.6,2.8,8.9,6,11.3,6c-1.4,4.9-3.9,9.5-5.2,14.5c-5.5,20.7,0.3,47.3,16,62.4c11,10.6,27.3,14.1,39.9,3.9
		c20.8-16.8,20.3-52.1,7.9-73.8c-3.6-6.3-8.2-11.3-13.5-16.2c2.5-1.9,5.3-3.9,7.1-6.6c0.7-1,3.8-6.2,1.3-6.7c-2-0.4-3.3,4-4.4,5.2
		c-10,11.6-36.9,17.9-51.3,13.5c-2.3-0.7-4.8-2.7-6.6-3.1C451,388.2,449.8,388.3,449.6,389.4L449.6,389.4z M426.5,473.5
		c7.4,2.3,15.4-5.1,19.1-11c9.8-15.9-13.1-17-23.5-15.5C401.4,450,413.1,469.4,426.5,473.5z M352.3,386.9
		c-21.7,17.7-28.2,53-14.9,77.6c13.6,25.1,40.6,21.9,55.9,0.4c11.1-15.5,14.4-37.8,9.4-56c-1.4-4.9-3.7-8.8-5.4-13.5
		c2.5,0.3,11.3-2.8,11.3-5.2c-0.4-3.7-4.9,0.4-7.6,1.2c-13,4.3-41.7-1.3-51.1-11.7c-2.2-2.4-2.8-7.3-6.4-6.8
		C342.9,379.3,349.8,382.1,352.3,386.9L352.3,386.9z M577.9,442.4l-14.5-25.2l0.4-9.8c-1.5,0-3.4-0.4-3.9,1.3
		c-0.7,2.2-0.5,9.5-1,12.7c-4.1,25.4-19.9,50.3-39.7,66.4c-72.2,58.6-194.7,32.6-230.8-54.6c-0.3-0.9-2.5-1.1-2.8-0.8
		c-1.5,1.5,5,13.5,6.3,15.8c3.5,6.3,7.7,12,11.8,17.9c-0.1,4.5-6.2,20.2-4.1,23.5c1.8,2.7,19.9-2,23.8-1.7
		c0.8,6.2,1.1,14.4,2.6,20.3c1.3,5.1,4.8,3.5,8.8,2.8c5.9-1,11.6-3.6,17.6-4.2c1.2,0.7,9.3,17.5,11.7,20.5c1.9,2.4,2.9,3,6,2.1
		c4-1.2,19.3-9.5,21.9-9.1c5.2,2.4,16.5,13.3,21.2,14.1c4.3,0.8,12.3-9.1,16.7-10.8c5.7,1.7,16.9,11.6,22.4,11
		c5.1-0.5,18.3-15.3,23.5-18.3c4.7,0.9,18.9,8.3,22.8,5.9c2.6-1.6,7.3-18.6,10.4-21.8c0.9-0.6,17.4,2.8,20.5,2.9
		c1.5,0,3.5,0.1,4.5-1.2c2.3-3.1,2.6-24.1,4-25.3c3.9-0.6,22.9-0.1,24.5-2.5c2.1-3.2-6.1-20.2-6.1-25c5.8-1.1,11.9-1.2,17.5-3
		C576.6,445.5,577.9,445.5,577.9,442.4L577.9,442.4z"/>
	<path class="st3" d="M470.5,467.3c15,17.9,37.6,16.7,48.5-4.5c10.4-20.2,6.4-50.5-8.7-67.5c-1.7-1.9-6.2-6.7-8.7-6.3
		c-8.6,4.2-18.1,6.7-27.6,7.8c-9.2,1.1-9.2-2.4-13.2,7.7C453,424.4,456.8,450.9,470.5,467.3L470.5,467.3z M487.2,396.4
		c21.3-2.8,32,30.1,30.7,46.8c-0.7,10.1-7.3,28.3-18.9,30.1C463.1,479,454.2,400.7,487.2,396.4z M479.1,417.9
		c0-6.3,5.1-11.4,11.4-11.4s11.4,5.1,11.4,11.4s-5.1,11.4-11.4,11.4S479.1,424.3,479.1,417.9z M358.7,419.7
		c0-6.3,5.1-11.4,11.4-11.4s11.4,5.1,11.4,11.4s-5.1,11.4-11.4,11.4S358.7,426,358.7,419.7z M482.6,247.4l6.4-3.2
		C488.3,248.8,486.6,247.3,482.6,247.4z M481.3,513.5l23-10.4l-7.3,16.8c-2.1-0.2-16.2-4.1-16.8-4.7
		C479.7,514.6,480,513.2,481.3,513.5L481.3,513.5z M357.1,508c9.4,4.7,19.6,7.9,29.7,10.5c-0.1,1.1-1.2,1.2-2,1.6
		c-5.1,2.6-11.5,4.7-16.8,7.1C366.7,526.9,356.2,509,357.1,508L357.1,508z M534.8,479l-3.2,21.7l-19.3-2.4c-0.5-1.9,0.4-1.3,1-1.8
		c6.9-5.3,12.7-11.2,19.1-16.3C533.2,479.6,533.4,478.6,534.8,479L534.8,479z M552.9,451.7l6.9,20.5c0,0.2-2.7,1.2-2.8,1.2h-18.1
		L552.9,451.7z M398.9,520.8c8.4,1.6,17.1,2.4,25.7,2.4l-10.7,8.7c-3.7-2.8-7.9-5-11.7-7.6C401,523.5,398.5,522.5,398.9,520.8
		L398.9,520.8z M435.9,523.6l32.9-6l-4.8,5.2c-1.7,1.5-10.6,8.8-11.9,9.1C449.8,532.5,438.8,525.3,435.9,523.6L435.9,523.6z
		 M562.6,423.5l11.7,20.1c-0.5,0.7-15.6,2.9-17.6,2.9c-0.7,0-1.6-0.3-1.6-0.9c0-0.4,2.8-5.7,3.2-7.2
		C558.7,436.7,561.8,423.5,562.6,423.5L562.6,423.5z M326.6,489.5l22.5,15.3c-2.9,0-18.9,5.4-20.1,4L326.6,489.5z M349.1,474.5
		c16.8,12.9,35.3,0.6,44.3-15.1c9.1-15.9,11.1-37.5,4.5-54.6c-0.5-1.3-3.1-7-3.8-7.4c-13.3-0.3-25.9-3.1-38.1-8.3
		C330.8,404.8,325,456.1,349.1,474.5L349.1,474.5z M358.5,401.1c12.8-9.6,25.8-4,31.8,9.8c7.8,18,3.5,45.4-12.2,58
		c-7.8,6.3-18.1,6.4-25.5-0.7C336.7,452.9,341.2,414.2,358.5,401.1L358.5,401.1z M320.9,485.4l-18.5,2.4c-0.6-0.6,3.1-16,3.6-16.9
		c0.9-1.6,1.2-0.1,1.9,0.5c3.9,4.1,7.4,7.9,11.6,11.7C320.3,483.9,321.3,483.9,320.9,485.4L320.9,485.4z"/>
</g>
</svg>
